<?xml version="1.0" encoding="UTF-8"?><svg id="Layer_2" xmlns="http://www.w3.org/2000/svg" viewBox="0 0 562.07 774.64"><defs><style>.cls-1{fill:#e5deba;}.cls-2{fill:none;}.cls-3{fill:#9e9177;}.cls-4{fill:#42332a;}</style></defs><g id="Layer_1-2"><path class="cls-1" d="M0,0v764.24h562.07V0H0ZM504.17,59.45v491.9c-1.78-.18-3.59-.29-5.42-.29-17.31,0-32.84,8.39-43.42,21.65-10.58-13.26-26.1-21.65-43.42-21.65s-32.84,8.39-43.42,21.65c-10.58-13.26-26.1-21.65-43.42-21.65s-32.84,8.39-43.42,21.65c-10.58-13.26-26.1-21.65-43.42-21.65s-32.84,8.39-43.42,21.65c-10.58-13.26-26.1-21.65-43.42-21.65s-32.84,8.39-43.42,21.65c-10.58-13.26-26.1-21.65-43.42-21.65-2.27,0-4.5.16-6.7.44V59.45h446.27Z"/><rect class="cls-2" x="154.45" y="634.93" width="391.75" height="139.71"/><path class="cls-4" d="M158.4,685.96c-1.43-1.29-3.28-2.21-.84-5.54,1.09-1.2,4.12-15.41,4.12-31.93,0-10.43,5.21-14.67,15.71-14.49,6.64.09,14.96,4.24,14.96,12.92,0,5.08-2.94,8.03-4.87,12.46v.09c6.13,3.97,13.44,9.87,12.86,18.55-.59,11.44-13.02,14.21-21.51,14.21-7.23,0-13.61-1.2-20.42-6.28ZM179.07,688.92c5.88,0,18.07-2.21,18.07-11.44,0-7.2-4.37-11.07-12.6-15.78-1.18-.65-.92-1.66.34-4.15,1.6-3.42,4.2-6.55,4.2-10.89,0-6.18-6.97-9.6-12.1-9.6-2.27,0-4.29.28-6.64.92-4.45,1.2-5.29,5.81-5.55,9.97-.42,7.94-.5,13.1-1.01,17.81-1.09,10.8-2.69,15.32-3.78,17.07,5.21,3.69,11.93,6.09,19.07,6.09ZM174.28,645.73c.76-.46,1.6-.65,2.52-.65,2.44,0,4.62,1.66,4.62,4.43,0,3.32-2.6,6.55-5.8,6.55-2.69,0-3.7-2.77-3.7-4.98,0-2.77.25-3.69,2.35-5.35ZM178.4,667.97c3.11,0,5.63,2.58,5.63,5.72,0,3.88-2.77,6.74-6.47,6.74s-4.62-3.6-4.62-6.74c0-2.86,2.6-5.72,5.46-5.72ZM175.38,649.42v2.95c0,.37.17.37.42.37,1.51,0,2.35-2.03,2.35-3.32,0-.74-.59-1.01-1.34-1.01-.59,0-1.43.37-1.43,1.01ZM177.73,677.2c1.93,0,2.94-1.94,2.94-3.51,0-1.29-1.01-2.4-2.35-2.4-1.43,0-2.19,2.21-2.19,3.23,0,1.2.34,2.68,1.6,2.68Z"/><path class="cls-4" d="M219.83,679.32c-.84.74-1.85,1.57-2.44,2.4l-4.79,6c-1.01,1.29-2.44,2.21-3.87,2.4-1.09.09-2.02-.28-2.94-.92-2.86-2.03-3.61-4.98-3.87-8.58-.42-4.8.42-9.51,1.51-14.12,3.87-15.5,10.08-29.35,25.55-30.82,16.05,0,19.75,18,18.91,32.76,0,2.49-.25,5.26-.76,7.75-.59,1.94-1.26,3.6-1.85,5.45-1.43,3.51-5.29,8.95-9.33,9.32-1.68.28-3.7-.46-4.87-2.03-1.26-1.85-1.85-4.71-2.52-7.75-.5-2.21-1.85-4.25-4.29-3.97-1.76.18-2.86,1.2-4.45,2.12ZM235.88,687.44c2.35-.28,5.38-4.98,6.39-7.38,1.51-3.78,2.27-7.11,2.35-11.07,0-5.54.08-11.17-1.51-16.89-1.76-6.83-5.21-13.66-14.03-12.83-1.34.09-2.86.37-4.29.83-10.34,3.05-15.29,15.78-17.98,26.39-1.09,4.61-1.93,9.14-1.51,14.03.17,2.03.34,3.97,1.85,5.26.42.46.92.65,1.43.65,1.01-.09,1.68-1.2,2.27-1.85.42-.46,3.45-4.52,3.78-4.98,1.93-2.58,6.22-5.81,9.5-6.09,3.61-.37,6.3,2.31,7.31,6.09.25.83,1.34,4.71,1.6,5.63.5,1.48,1.26,2.4,2.86,2.21ZM223.53,654.68c.59-1.48,1.51-2.77,3.11-2.95.67-.09,1.34.09,2.1.28,3.03.92,4.2,3.69,4.03,7.01,0,2.86-2.27,6.55-5.13,7.01-2.6.28-4.79-1.94-4.79-4.89-.17-1.85-.08-4.61.67-6.46ZM225.88,660.86c0,.83.67,1.66,1.51,1.66,1.34,0,2.27-3.6,2.18-4.71-.08-1.2-.84-2.58-2.18-2.49-1.09.18-1.6,4.52-1.51,5.35v.18Z"/><path class="cls-4" d="M255.04,685.96c-1.43-1.29-3.28-2.21-.84-5.54,1.09-1.2,4.12-15.41,4.12-31.93,0-10.43,5.21-14.67,15.71-14.49,6.64.09,14.96,4.24,14.96,12.92,0,5.08-2.94,8.03-4.87,12.46v.09c6.13,3.97,13.44,9.87,12.86,18.55-.59,11.44-13.02,14.21-21.51,14.21-7.23,0-13.61-1.2-20.42-6.28ZM275.71,688.92c5.88,0,18.07-2.21,18.07-11.44,0-7.2-4.37-11.07-12.6-15.78-1.18-.65-.92-1.66.34-4.15,1.6-3.42,4.2-6.55,4.2-10.89,0-6.18-6.97-9.6-12.1-9.6-2.27,0-4.29.28-6.64.92-4.45,1.2-5.29,5.81-5.55,9.97-.42,7.94-.5,13.1-1.01,17.81-1.09,10.8-2.69,15.32-3.78,17.07,5.21,3.69,11.93,6.09,19.07,6.09ZM270.92,645.73c.76-.46,1.6-.65,2.52-.65,2.44,0,4.62,1.66,4.62,4.43,0,3.32-2.6,6.55-5.8,6.55-2.69,0-3.7-2.77-3.7-4.98,0-2.77.25-3.69,2.35-5.35ZM275.04,667.97c3.11,0,5.63,2.58,5.63,5.72,0,3.88-2.77,6.74-6.47,6.74s-4.62-3.6-4.62-6.74c0-2.86,2.6-5.72,5.46-5.72ZM272.02,649.42v2.95c0,.37.17.37.42.37,1.51,0,2.35-2.03,2.35-3.32,0-.74-.59-1.01-1.34-1.01-.59,0-1.43.37-1.43,1.01ZM274.37,677.2c1.93,0,2.94-1.94,2.94-3.51,0-1.29-1.01-2.4-2.35-2.4-1.43,0-2.19,2.21-2.19,3.23,0,1.2.34,2.68,1.6,2.68Z"/><path class="cls-4" d="M308.4,630.31c4.2,0,7.4,3.6,8.82,7.84l3.19,9.51c.5,1.57,1.85,4.61,3.61,4.61,1.6,0,2.77-2.12,3.45-3.41.17-.46.92-2.03,1.09-2.49.34-1.11,2.44-6.92,2.86-8.21,1.6-3.88,4.71-8.21,9.08-8.21,6.55,0,8.91,8.3,8.91,14.3,0,6.74-3.28,13.66-8.49,17.44l-6.97,4.89c-1.68,1.11-4.12,3.6-4.12,7.66,0,2.03.25,3.97.25,5.81,0,5.35-3.95,10.15-8.91,10.15-6.05,0-8.32-6.55-8.4-12.18,0-2.12.5-5.63-.92-7.66-1.68-2.49-4.45-3.51-6.47-5.44-4.71-4.8-6.97-12.18-6.97-19.1s2.69-15.5,10-15.5ZM314.7,668.89c2.77,4.98-.92,13.75,4.2,17.07.84.55,1.34.74,2.27.74,2.27,0,5.63-2.31,5.63-6.83,0-1.85-.25-3.69-.25-5.72,0-4.52,2.35-8.12,5.8-10.61l6.97-4.89c4.45-3.14,6.97-9.04,6.97-14.86,0-3.78-1.34-10.43-5.8-10.43-2.86,0-5.13,3.23-6.05,5.81l-3.44,9.5c-1.18,3.32-3.53,7.11-6.97,7.11s-5.21-3.78-6.55-6.83c-.42-1.29-2.35-7.2-2.77-8.49-1.01-3.23-3.02-6.83-6.39-6.83-5.29,0-6.89,7.84-6.89,12.27,0,6.28,2.1,12.64,6.3,16.8,2.27,2.03,5.29,3.05,6.97,6.18Z"/><path class="cls-4" d="M363.44,670.46c-5.71,0-7.98-7.57-7.98-12.83,0-6.83,5.55-13.57,11.85-13.57,2.94,0,5.8,1.38,7.98,3.6.34.28,2.02,2.12,2.44,2.68,1.26,1.48,2.77,4.43,5.13,4.43,3.53,0,5.38-9.04,10.92-9.04s7.98,8.31,7.98,13.29c0,10.8-7.56,17.26-17.06,17.26-2.94,0-5.88-.92-8.15-2.95-2.02-1.66-3.87-4.34-6.47-4.34-2.35,0-4.29,1.48-6.64,1.48ZM379.16,670.64c1.51,1.2,3.53,1.85,5.55,1.85,7.65,0,13.36-4.89,13.36-13.47,0-2.58-1.26-9.23-4.29-9.23-.76,0-1.6.74-2.02,1.2l-4.12,5.44c-1.26,1.57-3.11,2.4-4.79,2.4-6.81,0-8.49-10.98-15.55-10.98-4.2,0-8.32,4.8-8.32,9.78v.46c0,2.68,1.43,8.31,4.62,8.31,2.19,0,3.95-1.29,6.64-1.29,3.78,0,5.8,3.23,8.91,5.54Z"/><path class="cls-4" d="M423.19,631.88h1.51c5.55,1.2,7.73,8.03,7.73,13.38v1.57l-1.51,12.92c-.5,4.89-3.61,13.01-9.24,13.01-9.16,0-10.67-10.61-10.67-18.46,0-8.68,1.93-22.43,12.18-22.43ZM421.01,669.07c3.53,0,5.29-3.69,6.13-7.11.25-.92.84-3.88,2.02-15.04v-1.48c0-4.06-1.51-10.06-5.97-10.06-6.3,0-8.23,8.4-8.74,13.84,0,5.26-1.51,19.84,6.55,19.84ZM423.02,676.73c3.28,0,5.38,3.14,5.38,6.55,0,3.6-2.35,6.37-5.21,7.84-.25.09-.67.09-1.09.09-3.45,0-5.46-3.69-5.46-7.01,0-3.88,2.69-7.48,6.39-7.48ZM421.93,687.53c1.76,0,3.19-2.58,3.19-4.34,0-1.2-.76-3.04-2.1-3.04-1.93,0-3.28,2.21-3.28,4.24,0,1.2.92,3.14,2.19,3.14Z"/><path class="cls-3" d="M108.02,685.79l-16.62-3.82c-2.84-.65-5.81.19-7.89,2.22l-12.43,12.18c-3.16,3.1-8.5,1.16-8.94-3.25l-1.93-19.5c-.26-2.6-1.69-4.94-3.89-6.35l-16-10.25c-3.46-2.21-3.17-7.35.51-9.17l16.73-8.25c2.38-1.18,4.09-3.4,4.6-6l3.75-18.93c.86-4.36,6.41-5.76,9.24-2.33l11.25,13.63c1.83,2.22,4.66,3.37,7.53,3.05l17.09-1.89c4.19-.46,7.2,3.94,5.25,7.68l-9.35,17.93c-1.15,2.21-1.28,4.81-.36,7.13l7.54,18.83c1.58,3.95-1.93,8.05-6.08,7.1Z"/><path class="cls-3" d="M503.6,650.82l-7.11-1.63c-2.84-.65-5.81.19-7.89,2.22l-5.19,5.08c-3.16,3.1-8.5,1.16-8.94-3.25l-.88-8.9c-.26-2.6-1.69-4.94-3.89-6.35l-7.61-4.88c-3.46-2.21-3.17-7.35.51-9.17l7.87-3.88c2.38-1.18,4.09-3.4,4.6-6l1.68-8.51c.86-4.36,6.41-5.76,9.24-2.33l4.72,5.72c1.83,2.22,4.66,3.37,7.53,3.05l7.43-.82c4.19-.46,7.2,3.94,5.25,7.68l-4.52,8.67c-1.15,2.21-1.28,4.81-.36,7.13l3.63,9.07c1.58,3.95-1.93,8.05-6.08,7.1Z"/><path class="cls-3" d="M465.99,710.81l-3.26-.75c-2.84-.65-5.81.19-7.89,2.22l-2.25,2.2c-3.16,3.1-8.5,1.16-8.94-3.25l-.45-4.6c-.26-2.6-1.69-4.94-3.89-6.35l-4.21-2.7c-3.46-2.21-3.17-7.35.51-9.17l4.27-2.11c2.38-1.18,4.09-3.4,4.6-6l.85-4.28c.86-4.36,6.41-5.76,9.24-2.33l2.08,2.52c1.83,2.22,4.66,3.37,7.53,3.05l3.51-.39c4.19-.46,7.2,3.94,5.25,7.68l-2.56,4.92c-1.15,2.21-1.28,4.81-.36,7.13l2.04,5.11c1.58,3.95-1.93,8.05-6.08,7.1Z"/></g></svg>